<svg width="1300" height="331" viewBox="0 0 1570 1" fill="none" xmlns="http://www.w3.org/2000/svg">
<path d="M11.712 91.464L3.84 92.232V93H50.88L53.28 72.072L52.128 71.88L45.6 88.296C45.024 89.704 44.384 90.664 43.68 91.176C42.976 91.624 41.856 91.848 40.32 91.848H19.104V28.296L27.456 27.528V26.76H3.84V27.528L11.712 28.296V91.464ZM78.8168 51.336C82.5288 51.336 85.8248 52.232 88.7048 54.024C91.5848 55.816 93.8248 58.344 95.4248 61.608C97.0248 64.808 97.8248 68.488 97.8248 72.648C97.8248 76.808 97.0248 80.52 95.4248 83.784C93.8248 86.984 91.5848 89.48 88.7048 91.272C85.8248 93.064 82.5288 93.96 78.8168 93.96C75.1048 93.96 71.8088 93.064 68.9288 91.272C66.0488 89.48 63.8088 86.984 62.2088 83.784C60.6088 80.52 59.8088 76.808 59.8088 72.648C59.8088 68.488 60.6088 64.808 62.2088 61.608C63.8088 58.344 66.0488 55.816 68.9288 54.024C71.8088 52.232 75.1048 51.336 78.8168 51.336ZM66.9128 72.648C66.9128 79.048 67.9688 84.04 70.0807 87.624C72.1928 91.208 75.1048 93 78.8168 93C82.5288 93 85.4408 91.208 87.5528 87.624C89.6648 84.04 90.7208 79.048 90.7208 72.648C90.7208 66.248 89.6648 61.256 87.5528 57.672C85.4408 54.088 82.5288 52.296 78.8168 52.296C75.1048 52.296 72.1928 54.088 70.0807 57.672C67.9688 61.256 66.9128 66.248 66.9128 72.648ZM134.225 58.152C134.737 56.552 135.633 55.4 136.913 54.696C138.193 53.928 140.305 53.384 143.249 53.064V52.296H126.065V53.064C128.625 53.448 130.385 53.896 131.345 54.408C132.305 54.856 132.785 55.592 132.785 56.616C132.785 57.32 132.593 58.312 132.209 59.592L123.569 85.512H123.185L113.201 57.192C112.753 55.912 112.529 55.08 112.529 54.696C112.529 54.184 112.849 53.832 113.489 53.64C114.193 53.384 115.697 53.192 118.001 53.064V52.296H99.4733V53.064C101.649 53.192 103.153 53.544 103.985 54.12C104.881 54.632 105.617 55.624 106.193 57.096L120.305 93.288H122.225L134.225 58.152ZM176.447 82.056L176.831 82.248L176.447 83.304C175.167 86.696 173.247 89.32 170.687 91.176C168.191 93.032 165.183 93.96 161.663 93.96C158.207 93.96 155.135 93.064 152.447 91.272C149.759 89.48 147.647 86.984 146.111 83.784C144.639 80.584 143.903 76.904 143.903 72.744C143.903 68.584 144.703 64.872 146.303 61.608C147.903 58.344 150.175 55.816 153.119 54.024C156.063 52.232 159.423 51.336 163.199 51.336C167.679 51.336 171.103 52.68 173.471 55.368C175.903 57.992 177.151 61.832 177.215 66.888L176.639 67.368H150.719C150.591 69.032 150.527 70.344 150.527 71.304C150.527 77.128 151.711 81.576 154.079 84.648C156.447 87.656 159.743 89.16 163.967 89.16C166.143 89.16 168.223 88.68 170.207 87.72C172.255 86.696 174.047 85.192 175.583 83.208L176.447 82.056ZM162.143 52.392C159.135 52.392 156.639 53.64 154.655 56.136C152.671 58.632 151.391 62.024 150.815 66.312L169.439 65.64C169.631 64.872 169.727 63.592 169.727 61.8C169.727 58.344 169.055 55.912 167.711 54.504C166.431 53.096 164.575 52.392 162.143 52.392ZM227.431 22.632C229.927 22.632 232.103 23.208 233.959 24.36C235.815 25.448 236.743 26.76 236.743 28.296C236.743 29.256 236.391 30.088 235.687 30.792C234.983 31.432 234.151 31.752 233.191 31.752C232.167 31.752 231.335 31.432 230.695 30.792C230.119 30.152 229.703 29.16 229.447 27.816C229.063 26.216 228.615 25.16 228.103 24.648C227.655 24.136 226.887 23.88 225.799 23.88C222.919 23.88 220.807 25.544 219.463 28.872C218.951 30.216 218.599 31.784 218.407 33.576C218.215 35.304 218.119 37.928 218.119 41.448V52.296H227.047L226.567 53.832H218.119V91.272L226.471 92.232V93H206.023V92.232L211.879 91.464V53.832H205.447L205.927 52.296H211.879V46.728C211.879 42.056 211.943 38.792 212.071 36.936C212.263 35.08 212.583 33.544 213.031 32.328C214.119 29.512 216.007 27.208 218.695 25.416C221.383 23.56 224.295 22.632 227.431 22.632ZM250.942 51.336C254.654 51.336 257.95 52.232 260.83 54.024C263.71 55.816 265.95 58.344 267.55 61.608C269.15 64.808 269.95 68.488 269.95 72.648C269.95 76.808 269.15 80.52 267.55 83.784C265.95 86.984 263.71 89.48 260.83 91.272C257.95 93.064 254.654 93.96 250.942 93.96C247.23 93.96 243.934 93.064 241.054 91.272C238.174 89.48 235.934 86.984 234.334 83.784C232.734 80.52 231.934 76.808 231.934 72.648C231.934 68.488 232.734 64.808 234.334 61.608C235.934 58.344 238.174 55.816 241.054 54.024C243.934 52.232 247.23 51.336 250.942 51.336ZM239.038 72.648C239.038 79.048 240.094 84.04 242.206 87.624C244.318 91.208 247.23 93 250.942 93C254.654 93 257.566 91.208 259.678 87.624C261.79 84.04 262.846 79.048 262.846 72.648C262.846 66.248 261.79 61.256 259.678 57.672C257.566 54.088 254.654 52.296 250.942 52.296C247.23 52.296 244.318 54.088 242.206 57.672C240.094 61.256 239.038 66.248 239.038 72.648ZM298.038 51.336C299.318 51.336 300.406 51.784 301.302 52.68C302.198 53.512 302.646 54.536 302.646 55.752C302.646 56.776 302.294 57.64 301.59 58.344C300.886 59.048 300.022 59.4 298.998 59.4C298.358 59.4 297.814 59.272 297.366 59.016C296.982 58.696 296.566 58.248 296.118 57.672C295.67 57.16 295.254 56.776 294.87 56.52C294.55 56.264 294.134 56.136 293.622 56.136C292.598 56.136 291.542 56.744 290.454 57.96C289.43 59.176 288.694 60.584 288.246 62.184V91.464L295.926 92.232V93H276.15V92.232L282.006 91.464V57.864L276.342 55.752V55.08L287.19 51.336H287.958V59.784C291.542 54.152 294.902 51.336 298.038 51.336ZM346.727 93.96C350.375 93.96 353.671 92.968 356.615 90.984C359.559 89 361.863 86.28 363.527 82.824C365.191 79.368 366.023 75.464 366.023 71.112C366.023 67.208 365.351 63.784 364.007 60.84C362.663 57.832 360.775 55.496 358.343 53.832C355.911 52.168 353.127 51.336 349.991 51.336C345.511 51.336 341.575 53.16 338.183 56.808V23.784H337.415L326.279 27.528V28.2L331.943 30.312V93H332.711L335.591 90.408H335.975C339.111 92.776 342.695 93.96 346.727 93.96ZM346.631 93C344.071 93 342.023 92.136 340.487 90.408C338.951 88.616 338.183 86.248 338.183 83.304V58.248C339.143 56.968 340.359 55.976 341.831 55.272C343.367 54.568 344.999 54.216 346.727 54.216C350.503 54.216 353.447 55.912 355.559 59.304C357.735 62.696 358.823 67.304 358.823 73.128C358.823 79.144 357.703 83.976 355.463 87.624C353.287 91.208 350.343 93 346.631 93ZM406.228 82.056L406.612 82.248L406.228 83.304C404.948 86.696 403.028 89.32 400.468 91.176C397.972 93.032 394.964 93.96 391.444 93.96C387.988 93.96 384.916 93.064 382.228 91.272C379.54 89.48 377.428 86.984 375.892 83.784C374.42 80.584 373.684 76.904 373.684 72.744C373.684 68.584 374.484 64.872 376.084 61.608C377.684 58.344 379.956 55.816 382.9 54.024C385.844 52.232 389.204 51.336 392.98 51.336C397.46 51.336 400.884 52.68 403.252 55.368C405.684 57.992 406.932 61.832 406.996 66.888L406.42 67.368H380.5C380.372 69.032 380.308 70.344 380.308 71.304C380.308 77.128 381.492 81.576 383.86 84.648C386.228 87.656 389.524 89.16 393.748 89.16C395.924 89.16 398.004 88.68 399.988 87.72C402.036 86.696 403.828 85.192 405.364 83.208L406.228 82.056ZM391.924 52.392C388.916 52.392 386.42 53.64 384.436 56.136C382.452 58.632 381.172 62.024 380.596 66.312L399.22 65.64C399.412 64.872 399.508 63.592 399.508 61.8C399.508 58.344 398.836 55.912 397.492 54.504C396.212 53.096 394.356 52.392 391.924 52.392ZM422.918 93.672C420.486 93.672 418.47 92.84 416.87 91.176C415.334 89.448 414.566 87.24 414.566 84.552C414.566 81.352 416.006 78.792 418.886 76.872C421.83 74.952 426.79 73.288 433.766 71.88V63.144C433.766 59.432 433.35 56.872 432.518 55.464C431.686 53.992 430.246 53.256 428.198 53.256C426.214 53.256 424.614 53.8 423.398 54.888C422.182 55.912 421.574 57.32 421.574 59.112L421.67 61.704C421.67 63.304 421.35 64.584 420.71 65.544C420.134 66.44 419.302 66.888 418.214 66.888C417.253 66.888 416.454 66.568 415.814 65.928C415.238 65.288 414.95 64.456 414.95 63.432C414.95 61.896 415.686 60.232 417.158 58.44C418.694 56.584 420.646 55.048 423.014 53.832C425.894 52.232 428.87 51.432 431.942 51.432C433.734 51.432 435.238 51.784 436.454 52.488C437.734 53.192 438.662 54.184 439.238 55.464C439.558 56.296 439.75 57.32 439.814 58.536C439.942 59.752 440.006 62.088 440.006 65.544V83.88C440.006 86.184 440.23 87.784 440.678 88.68C441.126 89.512 441.926 89.928 443.078 89.928C444.806 89.928 446.086 89.32 446.918 88.104L447.302 88.296C446.534 89.896 445.51 91.144 444.23 92.04C442.95 92.872 441.574 93.288 440.102 93.288C438.438 93.288 437.062 92.808 435.974 91.848C434.886 90.824 434.278 89.48 434.15 87.816L433.862 87.72C432.39 89.576 430.694 91.048 428.774 92.136C426.854 93.16 424.902 93.672 422.918 93.672ZM427.046 90.024C428.39 90.024 429.638 89.736 430.79 89.16C432.006 88.52 432.998 87.624 433.766 86.472V72.936C430.438 73.768 427.846 74.6 425.99 75.432C424.198 76.264 422.918 77.256 422.15 78.408C421.382 79.56 420.998 81 420.998 82.728C420.998 84.968 421.542 86.76 422.63 88.104C423.718 89.384 425.19 90.024 427.046 90.024ZM488.354 88.2V88.68L477.89 93.48H477.314V86.952L477.026 86.856C473.25 91.592 469.186 93.96 464.834 93.96C462.85 93.96 461.09 93.544 459.554 92.712C458.018 91.88 456.898 90.728 456.194 89.256C455.746 88.424 455.458 87.304 455.33 85.896C455.202 84.424 455.138 81.896 455.138 78.312V53.832L449.378 53.064V52.296H461.378V78.312C461.378 80.872 461.442 82.76 461.57 83.976C461.698 85.128 461.954 86.12 462.338 86.952C462.786 87.976 463.522 88.808 464.546 89.448C465.634 90.024 466.85 90.312 468.194 90.312C469.794 90.312 471.33 89.928 472.802 89.16C474.274 88.328 475.618 87.144 476.834 85.608V53.832L471.074 53.064V52.296H483.074V87.048L488.354 88.2ZM492.804 53.256L492.996 53.736H497.508V84.456C497.508 86.44 497.732 88.04 498.18 89.256C498.628 90.472 499.396 91.464 500.484 92.232C502.084 93.384 503.908 93.96 505.956 93.96C507.94 93.96 509.796 93.384 511.524 92.232C513.316 91.08 514.692 89.512 515.652 87.528L515.268 87.24C514.116 88.392 513.06 89.224 512.1 89.736C511.14 90.248 510.148 90.504 509.124 90.504C507.012 90.504 505.572 89.736 504.804 88.2C504.1 87.112 503.748 85.448 503.748 83.208V53.832H514.116L514.692 52.296H503.748V43.176L503.364 43.08L492.804 53.256ZM529.724 57.192C529.276 55.912 529.052 55.08 529.052 54.696C529.052 54.184 529.372 53.832 530.012 53.64C530.716 53.384 532.22 53.192 534.524 53.064V52.296H515.995V53.064C518.172 53.192 519.644 53.48 520.412 53.928C521.244 54.312 521.916 55.112 522.428 56.328L537.212 94.728L533.468 106.152C532.636 108.648 531.868 110.408 531.164 111.432C530.46 112.52 529.692 113.064 528.859 113.064C528.284 113.064 527.836 112.84 527.516 112.392C527.26 112.008 527.004 111.368 526.748 110.472C526.428 109.32 526.012 108.424 525.5 107.784C524.988 107.144 524.124 106.824 522.908 106.824C521.628 106.824 520.604 107.208 519.836 107.976C519.132 108.744 518.78 109.768 518.78 111.048C518.78 112.648 519.388 113.96 520.604 114.984C521.82 116.072 523.324 116.616 525.116 116.616C527.292 116.616 529.212 115.688 530.876 113.832C532.22 112.552 533.436 110.216 534.524 106.824L550.556 59.688C551.26 57.512 552.252 55.976 553.532 55.08C554.812 54.184 556.988 53.512 560.06 53.064V52.296H542.876V53.064C545.436 53.448 547.196 53.896 548.156 54.408C549.116 54.856 549.596 55.592 549.596 56.616C549.596 57.32 549.404 58.312 549.02 59.592L540.284 85.992H539.9L529.724 57.192ZM586.365 37.512C586.365 36.168 586.781 35.08 587.613 34.248C588.509 33.352 589.629 32.904 590.973 32.904C592.317 32.904 593.405 33.352 594.237 34.248C595.133 35.08 595.581 36.168 595.581 37.512C595.581 38.856 595.133 39.976 594.237 40.872C593.405 41.704 592.317 42.12 590.973 42.12C589.629 42.12 588.509 41.704 587.613 40.872C586.781 39.976 586.365 38.856 586.365 37.512ZM594.621 51.336H593.853L582.717 55.08V55.752L588.381 57.864V91.464L582.525 92.232V93H600.477V92.232L594.621 91.464V51.336ZM620.783 51.336C616.303 51.336 612.815 52.328 610.319 54.312C607.887 56.296 606.671 59.08 606.671 62.664C606.671 64.904 607.119 66.76 608.015 68.232C608.911 69.704 609.999 70.888 611.279 71.784C612.623 72.616 614.383 73.576 616.559 74.664C619.503 76.072 621.711 77.448 623.183 78.792C624.655 80.136 625.391 82.12 625.391 84.744C625.391 87.176 624.687 89.16 623.279 90.696C621.871 92.168 619.983 92.904 617.615 92.904C614.991 92.904 612.847 91.848 611.183 89.736C609.583 87.56 608.463 84.232 607.823 79.752H606.671L607.151 92.232C608.495 92.744 610.127 93.16 612.047 93.48C613.967 93.8 615.695 93.96 617.231 93.96C621.455 93.96 624.815 92.84 627.311 90.6C629.807 88.296 631.055 85.192 631.055 81.288C631.055 78.92 630.575 76.968 629.615 75.432C628.719 73.896 627.599 72.712 626.255 71.88C624.975 70.984 623.215 70.024 620.975 69C618.095 67.656 615.951 66.376 614.543 65.16C613.135 63.88 612.431 62.024 612.431 59.592C612.431 57.416 613.071 55.688 614.351 54.408C615.631 53.064 617.327 52.392 619.439 52.392C621.743 52.392 623.567 53.256 624.911 54.984C626.319 56.712 627.471 59.496 628.367 63.336H629.423V52.68C628.399 52.296 627.087 51.976 625.487 51.72C623.887 51.464 622.319 51.336 620.783 51.336ZM670.605 93.672C668.173 93.672 666.157 92.84 664.557 91.176C663.021 89.448 662.253 87.24 662.253 84.552C662.253 81.352 663.693 78.792 666.573 76.872C669.517 74.952 674.477 73.288 681.453 71.88V63.144C681.453 59.432 681.037 56.872 680.205 55.464C679.373 53.992 677.933 53.256 675.885 53.256C673.901 53.256 672.301 53.8 671.085 54.888C669.869 55.912 669.261 57.32 669.261 59.112L669.357 61.704C669.357 63.304 669.037 64.584 668.397 65.544C667.821 66.44 666.989 66.888 665.901 66.888C664.941 66.888 664.141 66.568 663.501 65.928C662.925 65.288 662.637 64.456 662.637 63.432C662.637 61.896 663.373 60.232 664.845 58.44C666.381 56.584 668.333 55.048 670.701 53.832C673.581 52.232 676.557 51.432 679.629 51.432C681.421 51.432 682.925 51.784 684.141 52.488C685.421 53.192 686.349 54.184 686.925 55.464C687.245 56.296 687.437 57.32 687.501 58.536C687.629 59.752 687.693 62.088 687.693 65.544V83.88C687.693 86.184 687.917 87.784 688.365 88.68C688.813 89.512 689.613 89.928 690.765 89.928C692.493 89.928 693.773 89.32 694.605 88.104L694.989 88.296C694.221 89.896 693.197 91.144 691.917 92.04C690.637 92.872 689.261 93.288 687.789 93.288C686.125 93.288 684.749 92.808 683.661 91.848C682.573 90.824 681.965 89.48 681.837 87.816L681.549 87.72C680.077 89.576 678.381 91.048 676.461 92.136C674.541 93.16 672.589 93.672 670.605 93.672ZM674.733 90.024C676.077 90.024 677.325 89.736 678.477 89.16C679.693 88.52 680.685 87.624 681.453 86.472V72.936C678.125 73.768 675.533 74.6 673.677 75.432C671.885 76.264 670.605 77.256 669.837 78.408C669.069 79.56 668.685 81 668.685 82.728C668.685 84.968 669.229 86.76 670.317 88.104C671.405 89.384 672.877 90.024 674.733 90.024ZM720.054 53.256L720.246 53.736H724.758V84.456C724.758 86.44 724.982 88.04 725.43 89.256C725.878 90.472 726.646 91.464 727.734 92.232C729.334 93.384 731.158 93.96 733.206 93.96C735.19 93.96 737.046 93.384 738.774 92.232C740.566 91.08 741.942 89.512 742.902 87.528L742.518 87.24C741.366 88.392 740.31 89.224 739.35 89.736C738.39 90.248 737.398 90.504 736.374 90.504C734.262 90.504 732.822 89.736 732.054 88.2C731.35 87.112 730.998 85.448 730.998 83.208V53.832H741.366L741.942 52.296H730.998V43.176L730.614 43.08L720.054 53.256ZM755.918 93.672C753.486 93.672 751.47 92.84 749.87 91.176C748.334 89.448 747.566 87.24 747.566 84.552C747.566 81.352 749.006 78.792 751.886 76.872C754.83 74.952 759.79 73.288 766.766 71.88V63.144C766.766 59.432 766.35 56.872 765.518 55.464C764.686 53.992 763.246 53.256 761.198 53.256C759.214 53.256 757.614 53.8 756.398 54.888C755.182 55.912 754.574 57.32 754.574 59.112L754.67 61.704C754.67 63.304 754.35 64.584 753.71 65.544C753.134 66.44 752.302 66.888 751.214 66.888C750.253 66.888 749.454 66.568 748.814 65.928C748.238 65.288 747.95 64.456 747.95 63.432C747.95 61.896 748.686 60.232 750.158 58.44C751.694 56.584 753.646 55.048 756.014 53.832C758.894 52.232 761.87 51.432 764.942 51.432C766.734 51.432 768.238 51.784 769.454 52.488C770.734 53.192 771.662 54.184 772.238 55.464C772.558 56.296 772.75 57.32 772.814 58.536C772.942 59.752 773.006 62.088 773.006 65.544V83.88C773.006 86.184 773.23 87.784 773.678 88.68C774.126 89.512 774.926 89.928 776.078 89.928C777.806 89.928 779.086 89.32 779.918 88.104L780.302 88.296C779.534 89.896 778.51 91.144 777.23 92.04C775.95 92.872 774.574 93.288 773.102 93.288C771.438 93.288 770.062 92.808 768.974 91.848C767.886 90.824 767.278 89.48 767.15 87.816L766.862 87.72C765.39 89.576 763.694 91.048 761.774 92.136C759.854 93.16 757.902 93.672 755.918 93.672ZM760.046 90.024C761.39 90.024 762.638 89.736 763.79 89.16C765.006 88.52 765.998 87.624 766.766 86.472V72.936C763.438 73.768 760.846 74.6 758.99 75.432C757.198 76.264 755.918 77.256 755.15 78.408C754.382 79.56 753.998 81 753.998 82.728C753.998 84.968 754.542 86.76 755.63 88.104C756.718 89.384 758.19 90.024 760.046 90.024ZM799.658 51.336C795.178 51.336 791.69 52.328 789.194 54.312C786.762 56.296 785.546 59.08 785.546 62.664C785.546 64.904 785.994 66.76 786.89 68.232C787.786 69.704 788.874 70.888 790.154 71.784C791.498 72.616 793.258 73.576 795.434 74.664C798.378 76.072 800.586 77.448 802.058 78.792C803.53 80.136 804.266 82.12 804.266 84.744C804.266 87.176 803.562 89.16 802.154 90.696C800.746 92.168 798.858 92.904 796.49 92.904C793.866 92.904 791.722 91.848 790.058 89.736C788.458 87.56 787.338 84.232 786.698 79.752H785.546L786.026 92.232C787.37 92.744 789.002 93.16 790.922 93.48C792.842 93.8 794.57 93.96 796.106 93.96C800.33 93.96 803.69 92.84 806.186 90.6C808.682 88.296 809.93 85.192 809.93 81.288C809.93 78.92 809.45 76.968 808.49 75.432C807.594 73.896 806.474 72.712 805.13 71.88C803.85 70.984 802.09 70.024 799.85 69C796.97 67.656 794.826 66.376 793.418 65.16C792.01 63.88 791.306 62.024 791.306 59.592C791.306 57.416 791.946 55.688 793.226 54.408C794.506 53.064 796.202 52.392 798.314 52.392C800.618 52.392 802.442 53.256 803.786 54.984C805.194 56.712 806.346 59.496 807.242 63.336H808.298V52.68C807.274 52.296 805.962 51.976 804.362 51.72C802.762 51.464 801.194 51.336 799.658 51.336ZM816.242 53.256L816.434 53.736H820.946V84.456C820.946 86.44 821.17 88.04 821.618 89.256C822.066 90.472 822.834 91.464 823.922 92.232C825.522 93.384 827.346 93.96 829.394 93.96C831.378 93.96 833.234 93.384 834.962 92.232C836.754 91.08 838.13 89.512 839.09 87.528L838.706 87.24C837.554 88.392 836.498 89.224 835.538 89.736C834.578 90.248 833.586 90.504 832.562 90.504C830.45 90.504 829.01 89.736 828.242 88.2C827.538 87.112 827.186 85.448 827.186 83.208V53.832H837.554L838.13 52.296H827.186V43.176L826.802 43.08L816.242 53.256ZM876.009 82.056L876.393 82.248L876.009 83.304C874.729 86.696 872.809 89.32 870.249 91.176C867.753 93.032 864.745 93.96 861.225 93.96C857.769 93.96 854.697 93.064 852.009 91.272C849.321 89.48 847.209 86.984 845.673 83.784C844.201 80.584 843.465 76.904 843.465 72.744C843.465 68.584 844.265 64.872 845.865 61.608C847.465 58.344 849.737 55.816 852.681 54.024C855.625 52.232 858.985 51.336 862.761 51.336C867.241 51.336 870.665 52.68 873.033 55.368C875.465 57.992 876.713 61.832 876.777 66.888L876.201 67.368H850.281C850.153 69.032 850.089 70.344 850.089 71.304C850.089 77.128 851.273 81.576 853.641 84.648C856.009 87.656 859.305 89.16 863.529 89.16C865.705 89.16 867.785 88.68 869.769 87.72C871.817 86.696 873.609 85.192 875.145 83.208L876.009 82.056ZM861.705 52.392C858.697 52.392 856.201 53.64 854.217 56.136C852.233 58.632 850.953 62.024 850.377 66.312L869.001 65.64C869.193 64.872 869.289 63.592 869.289 61.8C869.289 58.344 868.617 55.912 867.273 54.504C865.993 53.096 864.137 52.392 861.705 52.392ZM886.363 88.392C886.363 86.984 886.811 85.832 887.707 84.936C888.667 83.976 889.883 83.496 891.355 83.496C892.827 83.496 894.011 83.976 894.907 84.936C895.803 85.832 896.251 86.984 896.251 88.392C896.251 89.8 895.803 90.984 894.907 91.944C894.011 92.904 892.827 93.384 891.355 93.384C889.883 93.384 888.667 92.904 887.707 91.944C886.811 90.984 886.363 89.8 886.363 88.392ZM185.686 210.464L175.318 211.232V212H203.446V211.232L193.078 210.464V146.816H202.582C204.118 146.816 205.206 147.072 205.846 147.584C206.55 148.032 207.19 148.992 207.766 150.464L213.91 165.248L214.678 165.056L212.374 144.224H211.798C210.39 144.864 209.174 145.28 208.15 145.472C207.19 145.664 205.942 145.76 204.406 145.76H173.494C171.958 145.76 170.678 145.664 169.654 145.472C168.694 145.28 167.51 144.864 166.102 144.224H165.526L161.59 165.056L162.358 165.248L169.174 150.464C169.878 148.992 170.55 148.032 171.19 147.584C171.894 147.072 173.014 146.816 174.55 146.816H185.686V210.464ZM259.829 211.232V212H241.877V211.232L247.733 210.464V185.984C247.733 183.36 247.669 181.472 247.541 180.32C247.413 179.104 247.157 178.112 246.773 177.344C246.261 176.256 245.429 175.424 244.277 174.848C243.125 174.208 241.781 173.888 240.245 173.888C236.917 173.888 234.037 175.264 231.605 178.016V210.464L237.461 211.232V212H219.509V211.232L225.365 210.464V149.312L219.701 147.2V146.528L230.837 142.784H231.605V176.576C233.589 174.528 235.637 172.992 237.749 171.968C239.925 170.88 242.069 170.336 244.181 170.336C246.101 170.336 247.829 170.752 249.365 171.584C250.965 172.416 252.149 173.568 252.917 175.04C253.365 175.872 253.653 177.024 253.781 178.496C253.909 179.904 253.973 182.4 253.973 185.984V210.464L259.829 211.232ZM297.665 201.056L298.049 201.248L297.665 202.304C296.385 205.696 294.465 208.32 291.905 210.176C289.409 212.032 286.401 212.96 282.881 212.96C279.425 212.96 276.353 212.064 273.665 210.272C270.977 208.48 268.865 205.984 267.329 202.784C265.857 199.584 265.121 195.904 265.121 191.744C265.121 187.584 265.921 183.872 267.521 180.608C269.121 177.344 271.393 174.816 274.337 173.024C277.281 171.232 280.641 170.336 284.417 170.336C288.897 170.336 292.321 171.68 294.689 174.368C297.121 176.992 298.369 180.832 298.433 185.888L297.857 186.368H271.937C271.809 188.032 271.745 189.344 271.745 190.304C271.745 196.128 272.929 200.576 275.297 203.648C277.665 206.656 280.961 208.16 285.185 208.16C287.361 208.16 289.441 207.68 291.425 206.72C293.473 205.696 295.265 204.192 296.801 202.208L297.665 201.056ZM283.361 171.392C280.353 171.392 277.857 172.64 275.873 175.136C273.889 177.632 272.609 181.024 272.033 185.312L290.657 184.64C290.849 183.872 290.945 182.592 290.945 180.8C290.945 177.344 290.273 174.912 288.929 173.504C287.649 172.096 285.793 171.392 283.361 171.392ZM347.786 170.336C344.138 170.336 340.874 171.264 337.994 173.12C335.114 174.976 332.842 177.568 331.178 180.896C329.578 184.224 328.778 187.968 328.778 192.128C328.778 196.16 329.514 199.776 330.986 202.976C332.522 206.112 334.602 208.576 337.226 210.368C339.914 212.096 342.954 212.96 346.346 212.96C349.866 212.96 352.906 212.032 355.466 210.176C358.09 208.32 360.042 205.696 361.322 202.304L361.706 201.248L361.322 201.056L360.458 202.208C358.858 204.256 357.098 205.792 355.178 206.816C353.322 207.776 351.21 208.256 348.842 208.256C344.49 208.256 341.13 206.72 338.762 203.648C336.394 200.576 335.21 196.256 335.21 190.688C335.21 186.976 335.722 183.648 336.746 180.704C337.834 177.76 339.306 175.456 341.162 173.792C343.018 172.128 345.098 171.296 347.402 171.296C349.322 171.296 350.634 171.808 351.338 172.832C352.042 173.856 352.618 175.36 353.066 177.344C353.45 179.072 353.866 180.352 354.314 181.184C354.826 181.952 355.722 182.336 357.002 182.336C358.09 182.336 358.954 182.016 359.594 181.376C360.234 180.672 360.554 179.776 360.554 178.688C360.554 176.32 359.306 174.336 356.81 172.736C354.378 171.136 351.37 170.336 347.786 170.336ZM388.226 170.336C389.506 170.336 390.594 170.784 391.49 171.68C392.386 172.512 392.834 173.536 392.834 174.752C392.834 175.776 392.482 176.64 391.778 177.344C391.074 178.048 390.21 178.4 389.186 178.4C388.546 178.4 388.002 178.272 387.554 178.016C387.17 177.696 386.754 177.248 386.306 176.672C385.858 176.16 385.442 175.776 385.058 175.52C384.738 175.264 384.322 175.136 383.81 175.136C382.786 175.136 381.73 175.744 380.642 176.96C379.618 178.176 378.882 179.584 378.434 181.184V210.464L386.114 211.232V212H366.338V211.232L372.194 210.464V176.864L366.53 174.752V174.08L377.378 170.336H378.146V178.784C381.73 173.152 385.09 170.336 388.226 170.336ZM429.478 201.056L429.862 201.248L429.478 202.304C428.198 205.696 426.278 208.32 423.718 210.176C421.222 212.032 418.214 212.96 414.694 212.96C411.238 212.96 408.166 212.064 405.478 210.272C402.79 208.48 400.678 205.984 399.142 202.784C397.67 199.584 396.934 195.904 396.934 191.744C396.934 187.584 397.734 183.872 399.334 180.608C400.934 177.344 403.206 174.816 406.15 173.024C409.094 171.232 412.454 170.336 416.23 170.336C420.71 170.336 424.134 171.68 426.502 174.368C428.934 176.992 430.182 180.832 430.246 185.888L429.67 186.368H403.75C403.622 188.032 403.558 189.344 403.558 190.304C403.558 196.128 404.742 200.576 407.11 203.648C409.478 206.656 412.774 208.16 416.998 208.16C419.174 208.16 421.254 207.68 423.238 206.72C425.286 205.696 427.078 204.192 428.614 202.208L429.478 201.056ZM415.174 171.392C412.166 171.392 409.67 172.64 407.686 175.136C405.702 177.632 404.422 181.024 403.846 185.312L422.47 184.64C422.662 183.872 422.758 182.592 422.758 180.8C422.758 177.344 422.086 174.912 420.742 173.504C419.462 172.096 417.606 171.392 415.174 171.392ZM446.168 212.672C443.736 212.672 441.72 211.84 440.12 210.176C438.584 208.448 437.816 206.24 437.816 203.552C437.816 200.352 439.256 197.792 442.136 195.872C445.08 193.952 450.04 192.288 457.016 190.88V182.144C457.016 178.432 456.6 175.872 455.768 174.464C454.936 172.992 453.496 172.256 451.448 172.256C449.464 172.256 447.864 172.8 446.648 173.888C445.432 174.912 444.824 176.32 444.824 178.112L444.92 180.704C444.92 182.304 444.6 183.584 443.96 184.544C443.384 185.44 442.552 185.888 441.464 185.888C440.503 185.888 439.704 185.568 439.064 184.928C438.488 184.288 438.2 183.456 438.2 182.432C438.2 180.896 438.936 179.232 440.408 177.44C441.944 175.584 443.896 174.048 446.264 172.832C449.144 171.232 452.12 170.432 455.192 170.432C456.984 170.432 458.488 170.784 459.704 171.488C460.984 172.192 461.912 173.184 462.488 174.464C462.808 175.296 463 176.32 463.064 177.536C463.192 178.752 463.256 181.088 463.256 184.544V202.88C463.256 205.184 463.48 206.784 463.928 207.68C464.376 208.512 465.176 208.928 466.328 208.928C468.056 208.928 469.336 208.32 470.168 207.104L470.552 207.296C469.784 208.896 468.76 210.144 467.48 211.04C466.2 211.872 464.824 212.288 463.352 212.288C461.688 212.288 460.312 211.808 459.224 210.848C458.136 209.824 457.528 208.48 457.4 206.816L457.112 206.72C455.64 208.576 453.944 210.048 452.024 211.136C450.104 212.16 448.152 212.672 446.168 212.672ZM450.296 209.024C451.64 209.024 452.888 208.736 454.04 208.16C455.256 207.52 456.248 206.624 457.016 205.472V191.936C453.688 192.768 451.096 193.6 449.24 194.432C447.448 195.264 446.168 196.256 445.4 197.408C444.632 198.56 444.248 200 444.248 201.728C444.248 203.968 444.792 205.76 445.88 207.104C446.968 208.384 448.44 209.024 450.296 209.024ZM473.492 172.256L473.684 172.736H478.196V203.456C478.196 205.44 478.42 207.04 478.868 208.256C479.316 209.472 480.084 210.464 481.172 211.232C482.772 212.384 484.596 212.96 486.644 212.96C488.628 212.96 490.484 212.384 492.212 211.232C494.004 210.08 495.38 208.512 496.34 206.528L495.956 206.24C494.804 207.392 493.748 208.224 492.788 208.736C491.828 209.248 490.836 209.504 489.812 209.504C487.7 209.504 486.26 208.736 485.492 207.2C484.788 206.112 484.436 204.448 484.436 202.208V172.832H494.804L495.38 171.296H484.436V162.176L484.052 162.08L473.492 172.256ZM503.115 156.512C503.115 155.168 503.531 154.08 504.363 153.248C505.259 152.352 506.379 151.904 507.723 151.904C509.067 151.904 510.155 152.352 510.987 153.248C511.883 154.08 512.331 155.168 512.331 156.512C512.331 157.856 511.883 158.976 510.987 159.872C510.155 160.704 509.067 161.12 507.723 161.12C506.379 161.12 505.259 160.704 504.363 159.872C503.531 158.976 503.115 157.856 503.115 156.512ZM511.371 170.336H510.603L499.467 174.08V174.752L505.131 176.864V210.464L499.275 211.232V212H517.227V211.232L511.371 210.464V170.336ZM541.661 170.336C545.373 170.336 548.669 171.232 551.549 173.024C554.429 174.816 556.669 177.344 558.269 180.608C559.869 183.808 560.669 187.488 560.669 191.648C560.669 195.808 559.869 199.52 558.269 202.784C556.669 205.984 554.429 208.48 551.549 210.272C548.669 212.064 545.373 212.96 541.661 212.96C537.949 212.96 534.653 212.064 531.773 210.272C528.893 208.48 526.653 205.984 525.053 202.784C523.453 199.52 522.653 195.808 522.653 191.648C522.653 187.488 523.453 183.808 525.053 180.608C526.653 177.344 528.893 174.816 531.773 173.024C534.653 171.232 537.949 170.336 541.661 170.336ZM529.757 191.648C529.757 198.048 530.813 203.04 532.924 206.624C535.037 210.208 537.949 212 541.661 212C545.373 212 548.285 210.208 550.397 206.624C552.509 203.04 553.565 198.048 553.565 191.648C553.565 185.248 552.509 180.256 550.397 176.672C548.285 173.088 545.373 171.296 541.661 171.296C537.949 171.296 535.037 173.088 532.924 176.672C530.813 180.256 529.757 185.248 529.757 191.648ZM607.285 211.232V212H589.429V211.232L595.285 210.464V185.984C595.285 183.488 595.221 181.632 595.093 180.416C594.965 179.2 594.709 178.176 594.325 177.344C593.813 176.256 592.949 175.424 591.733 174.848C590.581 174.208 589.237 173.888 587.701 173.888C584.437 173.888 581.525 175.264 578.965 178.016V210.464L584.821 211.232V212H566.869V211.232L572.725 210.464V177.344L567.061 175.232V174.56L577.909 170.816H578.677V176.864C582.773 172.512 587.061 170.336 591.541 170.336C593.525 170.336 595.317 170.784 596.917 171.68C598.581 172.512 599.765 173.632 600.469 175.04C600.917 175.872 601.205 177.024 601.333 178.496C601.461 179.904 601.525 182.4 601.525 185.984V210.464L607.285 211.232ZM654.723 170.336C658.435 170.336 661.731 171.232 664.611 173.024C667.491 174.816 669.731 177.344 671.331 180.608C672.931 183.808 673.731 187.488 673.731 191.648C673.731 195.808 672.931 199.52 671.331 202.784C669.731 205.984 667.491 208.48 664.611 210.272C661.731 212.064 658.435 212.96 654.723 212.96C651.011 212.96 647.715 212.064 644.835 210.272C641.955 208.48 639.715 205.984 638.115 202.784C636.515 199.52 635.715 195.808 635.715 191.648C635.715 187.488 636.515 183.808 638.115 180.608C639.715 177.344 641.955 174.816 644.835 173.024C647.715 171.232 651.011 170.336 654.723 170.336ZM642.819 191.648C642.819 198.048 643.875 203.04 645.987 206.624C648.099 210.208 651.011 212 654.723 212C658.435 212 661.347 210.208 663.459 206.624C665.571 203.04 666.627 198.048 666.627 191.648C666.627 185.248 665.571 180.256 663.459 176.672C661.347 173.088 658.435 171.296 654.723 171.296C651.011 171.296 648.099 173.088 645.987 176.672C643.875 180.256 642.819 185.248 642.819 191.648ZM701.243 141.632C703.739 141.632 705.915 142.208 707.771 143.36C709.627 144.448 710.555 145.76 710.555 147.296C710.555 148.256 710.203 149.088 709.499 149.792C708.795 150.432 707.963 150.752 707.003 150.752C705.979 150.752 705.147 150.432 704.507 149.792C703.931 149.152 703.515 148.16 703.259 146.816C702.875 145.216 702.427 144.16 701.915 143.648C701.467 143.136 700.699 142.88 699.611 142.88C696.731 142.88 694.619 144.544 693.275 147.872C692.763 149.216 692.411 150.784 692.219 152.576C692.027 154.304 691.931 156.928 691.931 160.448V171.296H700.859L700.379 172.832H691.931V210.272L700.283 211.232V212H679.835V211.232L685.691 210.464V172.832H679.259L679.739 171.296H685.691V165.728C685.691 161.056 685.755 157.792 685.883 155.936C686.075 154.08 686.395 152.544 686.843 151.328C687.931 148.512 689.819 146.208 692.507 144.416C695.195 142.56 698.107 141.632 701.243 141.632ZM747.509 212.96C751.157 212.96 754.453 211.968 757.397 209.984C760.341 208 762.645 205.28 764.309 201.824C765.973 198.368 766.805 194.464 766.805 190.112C766.805 186.208 766.133 182.784 764.789 179.84C763.445 176.832 761.557 174.496 759.125 172.832C756.693 171.168 753.909 170.336 750.773 170.336C746.293 170.336 742.357 172.16 738.965 175.808V142.784H738.197L727.061 146.528V147.2L732.725 149.312V212H733.493L736.373 209.408H736.757C739.893 211.776 743.477 212.96 747.509 212.96ZM747.413 212C744.853 212 742.805 211.136 741.269 209.408C739.733 207.616 738.965 205.248 738.965 202.304V177.248C739.925 175.968 741.141 174.976 742.613 174.272C744.149 173.568 745.781 173.216 747.509 173.216C751.285 173.216 754.229 174.912 756.341 178.304C758.517 181.696 759.605 186.304 759.605 192.128C759.605 198.144 758.485 202.976 756.245 206.624C754.069 210.208 751.125 212 747.413 212ZM807.009 201.056L807.393 201.248L807.009 202.304C805.729 205.696 803.809 208.32 801.249 210.176C798.753 212.032 795.745 212.96 792.225 212.96C788.769 212.96 785.697 212.064 783.009 210.272C780.321 208.48 778.209 205.984 776.673 202.784C775.201 199.584 774.465 195.904 774.465 191.744C774.465 187.584 775.265 183.872 776.865 180.608C778.465 177.344 780.737 174.816 783.681 173.024C786.625 171.232 789.985 170.336 793.761 170.336C798.241 170.336 801.665 171.68 804.033 174.368C806.465 176.992 807.713 180.832 807.777 185.888L807.201 186.368H781.281C781.153 188.032 781.089 189.344 781.089 190.304C781.089 196.128 782.273 200.576 784.641 203.648C787.009 206.656 790.305 208.16 794.529 208.16C796.705 208.16 798.785 207.68 800.769 206.72C802.817 205.696 804.609 204.192 806.145 202.208L807.009 201.056ZM792.705 171.392C789.697 171.392 787.201 172.64 785.217 175.136C783.233 177.632 781.953 181.024 781.377 185.312L800.001 184.64C800.193 183.872 800.289 182.592 800.289 180.8C800.289 177.344 799.617 174.912 798.273 173.504C796.993 172.096 795.137 171.392 792.705 171.392ZM823.699 212.672C821.267 212.672 819.251 211.84 817.651 210.176C816.115 208.448 815.347 206.24 815.347 203.552C815.347 200.352 816.787 197.792 819.667 195.872C822.611 193.952 827.571 192.288 834.547 190.88V182.144C834.547 178.432 834.131 175.872 833.299 174.464C832.467 172.992 831.027 172.256 828.979 172.256C826.995 172.256 825.395 172.8 824.179 173.888C822.963 174.912 822.355 176.32 822.355 178.112L822.451 180.704C822.451 182.304 822.131 183.584 821.491 184.544C820.915 185.44 820.083 185.888 818.995 185.888C818.035 185.888 817.235 185.568 816.595 184.928C816.019 184.288 815.731 183.456 815.731 182.432C815.731 180.896 816.467 179.232 817.939 177.44C819.475 175.584 821.427 174.048 823.795 172.832C826.675 171.232 829.651 170.432 832.723 170.432C834.515 170.432 836.019 170.784 837.235 171.488C838.515 172.192 839.443 173.184 840.019 174.464C840.339 175.296 840.531 176.32 840.595 177.536C840.723 178.752 840.787 181.088 840.787 184.544V202.88C840.787 205.184 841.011 206.784 841.459 207.68C841.907 208.512 842.707 208.928 843.859 208.928C845.587 208.928 846.867 208.32 847.699 207.104L848.083 207.296C847.315 208.896 846.291 210.144 845.011 211.04C843.731 211.872 842.355 212.288 840.883 212.288C839.219 212.288 837.843 211.808 836.755 210.848C835.667 209.824 835.059 208.48 834.931 206.816L834.643 206.72C833.171 208.576 831.475 210.048 829.555 211.136C827.635 212.16 825.683 212.672 823.699 212.672ZM827.827 209.024C829.171 209.024 830.419 208.736 831.571 208.16C832.787 207.52 833.779 206.624 834.547 205.472V191.936C831.219 192.768 828.627 193.6 826.771 194.432C824.979 195.264 823.699 196.256 822.931 197.408C822.163 198.56 821.779 200 821.779 201.728C821.779 203.968 822.323 205.76 823.411 207.104C824.499 208.384 825.971 209.024 827.827 209.024ZM889.135 207.2V207.68L878.671 212.48H878.095V205.952L877.807 205.856C874.031 210.592 869.967 212.96 865.615 212.96C863.631 212.96 861.871 212.544 860.335 211.712C858.799 210.88 857.679 209.728 856.975 208.256C856.527 207.424 856.239 206.304 856.111 204.896C855.983 203.424 855.919 200.896 855.919 197.312V172.832L850.159 172.064V171.296H862.159V197.312C862.159 199.872 862.223 201.76 862.351 202.976C862.479 204.128 862.735 205.12 863.119 205.952C863.567 206.976 864.303 207.808 865.327 208.448C866.415 209.024 867.631 209.312 868.975 209.312C870.575 209.312 872.111 208.928 873.583 208.16C875.055 207.328 876.399 206.144 877.615 204.608V172.832L871.855 172.064V171.296H883.855V206.048L889.135 207.2ZM893.585 172.256L893.777 172.736H898.289V203.456C898.289 205.44 898.513 207.04 898.961 208.256C899.409 209.472 900.177 210.464 901.265 211.232C902.865 212.384 904.689 212.96 906.737 212.96C908.721 212.96 910.577 212.384 912.305 211.232C914.097 210.08 915.473 208.512 916.433 206.528L916.049 206.24C914.897 207.392 913.841 208.224 912.881 208.736C911.921 209.248 910.929 209.504 909.905 209.504C907.793 209.504 906.353 208.736 905.585 207.2C904.881 206.112 904.529 204.448 904.529 202.208V172.832H914.897L915.473 171.296H904.529V162.176L904.145 162.08L893.585 172.256ZM930.505 176.192C930.057 174.912 929.833 174.08 929.833 173.696C929.833 173.184 930.153 172.832 930.793 172.64C931.497 172.384 933.001 172.192 935.305 172.064V171.296H916.777V172.064C918.953 172.192 920.425 172.48 921.193 172.928C922.025 173.312 922.697 174.112 923.209 175.328L937.993 213.728L934.249 225.152C933.417 227.648 932.649 229.408 931.945 230.432C931.241 231.52 930.473 232.064 929.641 232.064C929.065 232.064 928.617 231.84 928.297 231.392C928.041 231.008 927.785 230.368 927.529 229.472C927.209 228.32 926.793 227.424 926.281 226.784C925.769 226.144 924.905 225.824 923.689 225.824C922.409 225.824 921.385 226.208 920.617 226.976C919.913 227.744 919.561 228.768 919.561 230.048C919.561 231.648 920.169 232.96 921.385 233.984C922.601 235.072 924.105 235.616 925.897 235.616C928.073 235.616 929.993 234.688 931.657 232.832C933.001 231.552 934.217 229.216 935.305 225.824L951.337 178.688C952.041 176.512 953.033 174.976 954.313 174.08C955.593 173.184 957.769 172.512 960.841 172.064V171.296H943.657V172.064C946.217 172.448 947.977 172.896 948.937 173.408C949.897 173.856 950.377 174.592 950.377 175.616C950.377 176.32 950.185 177.312 949.801 178.592L941.065 204.992H940.681L930.505 176.192ZM987.146 156.512C987.146 155.168 987.562 154.08 988.394 153.248C989.29 152.352 990.41 151.904 991.754 151.904C993.098 151.904 994.186 152.352 995.018 153.248C995.914 154.08 996.362 155.168 996.362 156.512C996.362 157.856 995.914 158.976 995.018 159.872C994.186 160.704 993.098 161.12 991.754 161.12C990.41 161.12 989.29 160.704 988.394 159.872C987.562 158.976 987.146 157.856 987.146 156.512ZM995.402 170.336H994.634L983.498 174.08V174.752L989.162 176.864V210.464L983.306 211.232V212H1001.26V211.232L995.402 210.464V170.336ZM1021.56 170.336C1017.08 170.336 1013.6 171.328 1011.1 173.312C1008.67 175.296 1007.45 178.08 1007.45 181.664C1007.45 183.904 1007.9 185.76 1008.8 187.232C1009.69 188.704 1010.78 189.888 1012.06 190.784C1013.4 191.616 1015.16 192.576 1017.34 193.664C1020.28 195.072 1022.49 196.448 1023.96 197.792C1025.44 199.136 1026.17 201.12 1026.17 203.744C1026.17 206.176 1025.47 208.16 1024.06 209.696C1022.65 211.168 1020.76 211.904 1018.4 211.904C1015.77 211.904 1013.63 210.848 1011.96 208.736C1010.36 206.56 1009.24 203.232 1008.6 198.752H1007.45L1007.93 211.232C1009.28 211.744 1010.91 212.16 1012.83 212.48C1014.75 212.8 1016.48 212.96 1018.01 212.96C1022.24 212.96 1025.6 211.84 1028.09 209.6C1030.59 207.296 1031.84 204.192 1031.84 200.288C1031.84 197.92 1031.36 195.968 1030.4 194.432C1029.5 192.896 1028.38 191.712 1027.04 190.88C1025.76 189.984 1024 189.024 1021.76 188C1018.88 186.656 1016.73 185.376 1015.32 184.16C1013.92 182.88 1013.21 181.024 1013.21 178.592C1013.21 176.416 1013.85 174.688 1015.13 173.408C1016.41 172.064 1018.11 171.392 1020.22 171.392C1022.52 171.392 1024.35 172.256 1025.69 173.984C1027.1 175.712 1028.25 178.496 1029.15 182.336H1030.2V171.68C1029.18 171.296 1027.87 170.976 1026.27 170.72C1024.67 170.464 1023.1 170.336 1021.56 170.336ZM1071.39 212.672C1068.95 212.672 1066.94 211.84 1065.34 210.176C1063.8 208.448 1063.03 206.24 1063.03 203.552C1063.03 200.352 1064.47 197.792 1067.35 195.872C1070.3 193.952 1075.26 192.288 1082.23 190.88V182.144C1082.23 178.432 1081.82 175.872 1080.99 174.464C1080.15 172.992 1078.71 172.256 1076.67 172.256C1074.68 172.256 1073.08 172.8 1071.87 173.888C1070.65 174.912 1070.04 176.32 1070.04 178.112L1070.14 180.704C1070.14 182.304 1069.82 183.584 1069.18 184.544C1068.6 185.44 1067.77 185.888 1066.68 185.888C1065.72 185.888 1064.92 185.568 1064.28 184.928C1063.71 184.288 1063.42 183.456 1063.42 182.432C1063.42 180.896 1064.15 179.232 1065.63 177.44C1067.16 175.584 1069.11 174.048 1071.48 172.832C1074.36 171.232 1077.34 170.432 1080.41 170.432C1082.2 170.432 1083.71 170.784 1084.92 171.488C1086.2 172.192 1087.13 173.184 1087.71 174.464C1088.03 175.296 1088.22 176.32 1088.28 177.536C1088.41 178.752 1088.47 181.088 1088.47 184.544V202.88C1088.47 205.184 1088.7 206.784 1089.15 207.68C1089.59 208.512 1090.39 208.928 1091.55 208.928C1093.27 208.928 1094.55 208.32 1095.39 207.104L1095.77 207.296C1095 208.896 1093.98 210.144 1092.7 211.04C1091.42 211.872 1090.04 212.288 1088.57 212.288C1086.91 212.288 1085.53 211.808 1084.44 210.848C1083.35 209.824 1082.75 208.48 1082.62 206.816L1082.33 206.72C1080.86 208.576 1079.16 210.048 1077.24 211.136C1075.32 212.16 1073.37 212.672 1071.39 212.672ZM1075.51 209.024C1076.86 209.024 1078.11 208.736 1079.26 208.16C1080.47 207.52 1081.47 206.624 1082.23 205.472V191.936C1078.91 192.768 1076.31 193.6 1074.46 194.432C1072.67 195.264 1071.39 196.256 1070.62 197.408C1069.85 198.56 1069.47 200 1069.47 201.728C1069.47 203.968 1070.01 205.76 1071.1 207.104C1072.19 208.384 1073.66 209.024 1075.51 209.024ZM1139.22 211.232V212H1121.37V211.232L1127.22 210.464V185.984C1127.22 183.488 1127.16 181.632 1127.03 180.416C1126.9 179.2 1126.65 178.176 1126.26 177.344C1125.75 176.256 1124.89 175.424 1123.67 174.848C1122.52 174.208 1121.17 173.888 1119.64 173.888C1116.37 173.888 1113.46 175.264 1110.9 178.016V210.464L1116.76 211.232V212H1098.81V211.232L1104.66 210.464V177.344L1099 175.232V174.56L1109.85 170.816H1110.61V176.864C1114.71 172.512 1119 170.336 1123.48 170.336C1125.46 170.336 1127.25 170.784 1128.85 171.68C1130.52 172.512 1131.7 173.632 1132.41 175.04C1132.85 175.872 1133.14 177.024 1133.27 178.496C1133.4 179.904 1133.46 182.4 1133.46 185.984V210.464L1139.22 211.232ZM1176.29 212.672C1173.86 212.672 1171.84 211.84 1170.24 210.176C1168.71 208.448 1167.94 206.24 1167.94 203.552C1167.94 200.352 1169.38 197.792 1172.26 195.872C1175.2 193.952 1180.16 192.288 1187.14 190.88V182.144C1187.14 178.432 1186.72 175.872 1185.89 174.464C1185.06 172.992 1183.62 172.256 1181.57 172.256C1179.59 172.256 1177.99 172.8 1176.77 173.888C1175.56 174.912 1174.95 176.32 1174.95 178.112L1175.04 180.704C1175.04 182.304 1174.72 183.584 1174.08 184.544C1173.51 185.44 1172.68 185.888 1171.59 185.888C1170.63 185.888 1169.83 185.568 1169.19 184.928C1168.61 184.288 1168.32 183.456 1168.32 182.432C1168.32 180.896 1169.06 179.232 1170.53 177.44C1172.07 175.584 1174.02 174.048 1176.39 172.832C1179.27 171.232 1182.24 170.432 1185.32 170.432C1187.11 170.432 1188.61 170.784 1189.83 171.488C1191.11 172.192 1192.04 173.184 1192.61 174.464C1192.93 175.296 1193.12 176.32 1193.19 177.536C1193.32 178.752 1193.38 181.088 1193.38 184.544V202.88C1193.38 205.184 1193.6 206.784 1194.05 207.68C1194.5 208.512 1195.3 208.928 1196.45 208.928C1198.18 208.928 1199.46 208.32 1200.29 207.104L1200.68 207.296C1199.91 208.896 1198.88 210.144 1197.6 211.04C1196.32 211.872 1194.95 212.288 1193.48 212.288C1191.81 212.288 1190.44 211.808 1189.35 210.848C1188.26 209.824 1187.65 208.48 1187.52 206.816L1187.24 206.72C1185.76 208.576 1184.07 210.048 1182.15 211.136C1180.23 212.16 1178.28 212.672 1176.29 212.672ZM1180.42 209.024C1181.76 209.024 1183.01 208.736 1184.16 208.16C1185.38 207.52 1186.37 206.624 1187.14 205.472V191.936C1183.81 192.768 1181.22 193.6 1179.36 194.432C1177.57 195.264 1176.29 196.256 1175.52 197.408C1174.76 198.56 1174.37 200 1174.37 201.728C1174.37 203.968 1174.92 205.76 1176 207.104C1177.09 208.384 1178.56 209.024 1180.42 209.024ZM1225.6 170.336C1226.88 170.336 1227.97 170.784 1228.86 171.68C1229.76 172.512 1230.21 173.536 1230.21 174.752C1230.21 175.776 1229.86 176.64 1229.15 177.344C1228.45 178.048 1227.58 178.4 1226.56 178.4C1225.92 178.4 1225.38 178.272 1224.93 178.016C1224.54 177.696 1224.13 177.248 1223.68 176.672C1223.23 176.16 1222.82 175.776 1222.43 175.52C1222.11 175.264 1221.7 175.136 1221.18 175.136C1220.16 175.136 1219.1 175.744 1218.02 176.96C1216.99 178.176 1216.26 179.584 1215.81 181.184V210.464L1223.49 211.232V212H1203.71V211.232L1209.57 210.464V176.864L1203.9 174.752V174.08L1214.75 170.336H1215.52V178.784C1219.1 173.152 1222.46 170.336 1225.6 170.336ZM1233.9 172.256L1234.09 172.736H1238.6V203.456C1238.6 205.44 1238.83 207.04 1239.27 208.256C1239.72 209.472 1240.49 210.464 1241.58 211.232C1243.18 212.384 1245 212.96 1247.05 212.96C1249.03 212.96 1250.89 212.384 1252.62 211.232C1254.41 210.08 1255.79 208.512 1256.75 206.528L1256.36 206.24C1255.21 207.392 1254.15 208.224 1253.19 208.736C1252.23 209.248 1251.24 209.504 1250.22 209.504C1248.11 209.504 1246.67 208.736 1245.9 207.2C1245.19 206.112 1244.84 204.448 1244.84 202.208V172.832H1255.21L1255.79 171.296H1244.84V162.176L1244.46 162.08L1233.9 172.256ZM1263.43 207.392C1263.43 205.984 1263.87 204.832 1264.77 203.936C1265.73 202.976 1266.95 202.496 1268.42 202.496C1269.89 202.496 1271.07 202.976 1271.97 203.936C1272.87 204.832 1273.31 205.984 1273.31 207.392C1273.31 208.8 1272.87 209.984 1271.97 210.944C1271.07 211.904 1269.89 212.384 1268.42 212.384C1266.95 212.384 1265.73 211.904 1264.77 210.944C1263.87 209.984 1263.43 208.8 1263.43 207.392Z" fill="white"/>
<path d="M832.408 313.488V314H825.816C824.792 314 824.024 313.851 823.512 313.552C823 313.253 822.467 312.677 821.912 311.824L812.12 296.016C811.523 295.035 811.011 294.437 810.584 294.224C810.2 293.968 809.496 293.84 808.472 293.84H803.736V312.976L809.304 313.488V314H793.56V313.488L798.808 312.976V270.864L793.56 270.352V269.84H809.752C814.787 269.84 818.627 270.864 821.272 272.912C823.917 274.917 825.24 277.84 825.24 281.68C825.24 284.667 824.429 287.12 822.808 289.04C821.187 290.96 818.84 292.283 815.768 293.008H815.832L827.544 311.312C828.099 312.165 828.632 312.741 829.144 313.04C829.699 313.339 830.488 313.488 831.512 313.488H832.408ZM803.736 270.608V292.88H809.56C812.973 292.88 815.491 291.984 817.112 290.192C818.776 288.357 819.608 285.563 819.608 281.808C819.608 278.011 818.776 275.195 817.112 273.36C815.448 271.525 812.931 270.608 809.56 270.608H803.736ZM838.633 314.448C837.011 314.448 835.667 313.893 834.601 312.784C833.577 311.632 833.065 310.16 833.065 308.368C833.065 306.235 834.025 304.528 835.945 303.248C837.907 301.968 841.214 300.859 845.865 299.92V294.096C845.865 291.621 845.587 289.915 845.033 288.976C844.478 287.995 843.518 287.504 842.153 287.504C840.83 287.504 839.763 287.867 838.953 288.592C838.142 289.275 837.737 290.213 837.737 291.408L837.801 293.136C837.801 294.203 837.587 295.056 837.161 295.696C836.777 296.293 836.222 296.592 835.497 296.592C834.856 296.592 834.323 296.379 833.897 295.952C833.513 295.525 833.321 294.971 833.321 294.288C833.321 293.264 833.811 292.155 834.793 290.96C835.817 289.723 837.118 288.699 838.697 287.888C840.617 286.821 842.601 286.288 844.649 286.288C845.843 286.288 846.846 286.523 847.657 286.992C848.51 287.461 849.129 288.123 849.513 288.976C849.726 289.531 849.854 290.213 849.897 291.024C849.982 291.835 850.025 293.392 850.025 295.696V307.92C850.025 309.456 850.174 310.523 850.473 311.12C850.771 311.675 851.305 311.952 852.073 311.952C853.225 311.952 854.078 311.547 854.633 310.736L854.889 310.864C854.377 311.931 853.694 312.763 852.841 313.36C851.987 313.915 851.07 314.192 850.089 314.192C848.979 314.192 848.062 313.872 847.337 313.232C846.611 312.549 846.206 311.653 846.121 310.544L845.929 310.48C844.947 311.717 843.817 312.699 842.537 313.424C841.257 314.107 839.955 314.448 838.633 314.448ZM841.385 312.016C842.281 312.016 843.113 311.824 843.881 311.44C844.691 311.013 845.353 310.416 845.865 309.648V300.624C843.646 301.179 841.918 301.733 840.681 302.288C839.486 302.843 838.633 303.504 838.121 304.272C837.609 305.04 837.353 306 837.353 307.152C837.353 308.645 837.715 309.84 838.441 310.736C839.166 311.589 840.147 312.016 841.385 312.016ZM864.529 267.856H864.017L856.593 270.352V270.8L860.369 272.208V312.976L856.465 313.488V314H868.433V313.488L864.529 312.976V267.856ZM878.779 313.488C880.528 314.256 882.277 314.64 884.027 314.64C886.544 314.64 888.805 314 890.811 312.72C892.816 311.44 894.373 309.669 895.483 307.408C896.592 305.147 897.147 302.565 897.147 299.664C897.147 297.104 896.72 294.8 895.867 292.752C895.013 290.704 893.819 289.104 892.283 287.952C890.747 286.8 889.04 286.224 887.163 286.224C885.499 286.224 883.92 286.629 882.427 287.44C880.976 288.251 879.781 289.36 878.843 290.768H878.587V286.224H878.075L870.843 288.72V289.168L874.619 290.576V327.952L870.715 328.464V328.976H884.539V328.528L878.779 327.824V313.488ZM884.475 314C882.939 314 881.595 313.552 880.443 312.656C879.333 311.76 878.779 310.693 878.779 309.456V291.984C879.291 290.789 880.08 289.851 881.147 289.168C882.213 288.485 883.408 288.144 884.731 288.144C887.077 288.144 888.955 289.275 890.363 291.536C891.771 293.797 892.475 296.805 892.475 300.56C892.475 303.12 892.133 305.424 891.451 307.472C890.768 309.52 889.808 311.12 888.571 312.272C887.376 313.424 886.011 314 884.475 314ZM927.782 313.488V314H915.814V313.488L919.718 312.976V296.656C919.718 294.907 919.675 293.648 919.59 292.88C919.505 292.069 919.334 291.408 919.078 290.896C918.737 290.171 918.182 289.616 917.414 289.232C916.646 288.805 915.75 288.592 914.726 288.592C912.507 288.592 910.587 289.509 908.966 291.344V312.976L912.87 313.488V314H900.902V313.488L904.806 312.976V272.208L901.03 270.8V270.352L908.454 267.856H908.966V290.384C910.289 289.019 911.654 287.995 913.062 287.312C914.513 286.587 915.942 286.224 917.35 286.224C918.63 286.224 919.782 286.501 920.806 287.056C921.873 287.611 922.662 288.379 923.174 289.36C923.473 289.915 923.665 290.683 923.75 291.664C923.835 292.603 923.878 294.267 923.878 296.656V312.976L927.782 313.488ZM1003.64 269.84V270.352L1000.06 270.672C998.908 270.757 998.119 270.971 997.692 271.312C997.265 271.611 996.903 272.251 996.604 273.232L983.868 315.024H982.844L971.644 283.152L961.916 315.024H960.892L945.34 270.864L940.092 270.352V269.84H956.092V270.352L950.524 270.864L963.132 306.832H963.388L971.068 281.616L967.292 270.864L962.044 270.352V269.84H978.044V270.352L972.476 270.864L985.084 306.832H985.34L995.58 273.232C995.708 272.763 995.772 272.357 995.772 272.016C995.772 271.547 995.644 271.227 995.388 271.056C995.132 270.843 994.641 270.715 993.916 270.672L990.012 270.352V269.84H1003.64ZM1004.38 314.448C1002.76 314.448 1001.42 313.893 1000.35 312.784C999.327 311.632 998.815 310.16 998.815 308.368C998.815 306.235 999.775 304.528 1001.69 303.248C1003.66 301.968 1006.96 300.859 1011.61 299.92V294.096C1011.61 291.621 1011.34 289.915 1010.78 288.976C1010.23 287.995 1009.27 287.504 1007.9 287.504C1006.58 287.504 1005.51 287.867 1004.7 288.592C1003.89 289.275 1003.49 290.213 1003.49 291.408L1003.55 293.136C1003.55 294.203 1003.34 295.056 1002.91 295.696C1002.53 296.293 1001.97 296.592 1001.25 296.592C1000.61 296.592 1000.07 296.379 999.647 295.952C999.263 295.525 999.071 294.971 999.071 294.288C999.071 293.264 999.561 292.155 1000.54 290.96C1001.57 289.723 1002.87 288.699 1004.45 287.888C1006.37 286.821 1008.35 286.288 1010.4 286.288C1011.59 286.288 1012.6 286.523 1013.41 286.992C1014.26 287.461 1014.88 288.123 1015.26 288.976C1015.48 289.531 1015.6 290.213 1015.65 291.024C1015.73 291.835 1015.77 293.392 1015.77 295.696V307.92C1015.77 309.456 1015.92 310.523 1016.22 311.12C1016.52 311.675 1017.05 311.952 1017.82 311.952C1018.97 311.952 1019.83 311.547 1020.38 310.736L1020.64 310.864C1020.13 311.931 1019.44 312.763 1018.59 313.36C1017.74 313.915 1016.82 314.192 1015.84 314.192C1014.73 314.192 1013.81 313.872 1013.09 313.232C1012.36 312.549 1011.96 311.653 1011.87 310.544L1011.68 310.48C1010.7 311.717 1009.57 312.699 1008.29 313.424C1007.01 314.107 1005.71 314.448 1004.38 314.448ZM1007.13 312.016C1008.03 312.016 1008.86 311.824 1009.63 311.44C1010.44 311.013 1011.1 310.416 1011.61 309.648V300.624C1009.4 301.179 1007.67 301.733 1006.43 302.288C1005.24 302.843 1004.38 303.504 1003.87 304.272C1003.36 305.04 1003.1 306 1003.1 307.152C1003.1 308.645 1003.47 309.84 1004.19 310.736C1004.92 311.589 1005.9 312.016 1007.13 312.016ZM1030.28 267.856H1029.77L1022.34 270.352V270.8L1026.12 272.208V312.976L1022.21 313.488V314H1034.18V313.488L1030.28 312.976V267.856ZM1048.5 314.64C1050.12 314.64 1051.61 314.235 1052.98 313.424C1054.38 312.613 1055.58 311.44 1056.56 309.904L1056.75 309.968V314.32H1057.14L1064.11 311.12V310.8L1060.59 310.032V267.856H1060.08L1052.66 270.352V270.8L1056.43 272.208V286.992C1054.77 286.48 1053.1 286.224 1051.44 286.224C1048.8 286.224 1046.43 286.843 1044.34 288.08C1042.29 289.317 1040.69 291.067 1039.54 293.328C1038.43 295.547 1037.87 298.085 1037.87 300.944C1037.87 303.547 1038.32 305.893 1039.22 307.984C1040.16 310.032 1041.44 311.653 1043.06 312.848C1044.68 314.043 1046.49 314.64 1048.5 314.64ZM1050.74 312.08C1048.13 312.08 1046.09 311.013 1044.59 308.88C1043.14 306.704 1042.42 303.76 1042.42 300.048C1042.42 296.08 1043.23 292.901 1044.85 290.512C1046.51 288.08 1048.69 286.864 1051.38 286.864C1053 286.864 1054.24 287.376 1055.09 288.4C1055.98 289.381 1056.43 290.811 1056.43 292.688V309.072C1055.88 310.011 1055.09 310.757 1054.06 311.312C1053.08 311.824 1051.97 312.08 1050.74 312.08ZM1080.73 286.224C1083.21 286.224 1085.4 286.821 1087.32 288.016C1089.24 289.211 1090.74 290.896 1091.8 293.072C1092.87 295.205 1093.4 297.659 1093.4 300.432C1093.4 303.205 1092.87 305.68 1091.8 307.856C1090.74 309.989 1089.24 311.653 1087.32 312.848C1085.4 314.043 1083.21 314.64 1080.73 314.64C1078.26 314.64 1076.06 314.043 1074.14 312.848C1072.22 311.653 1070.73 309.989 1069.66 307.856C1068.59 305.68 1068.06 303.205 1068.06 300.432C1068.06 297.659 1068.59 295.205 1069.66 293.072C1070.73 290.896 1072.22 289.211 1074.14 288.016C1076.06 286.821 1078.26 286.224 1080.73 286.224ZM1072.8 300.432C1072.8 304.699 1073.5 308.027 1074.91 310.416C1076.32 312.805 1078.26 314 1080.73 314C1083.21 314 1085.15 312.805 1086.56 310.416C1087.96 308.027 1088.67 304.699 1088.67 300.432C1088.67 296.165 1087.96 292.837 1086.56 290.448C1085.15 288.059 1083.21 286.864 1080.73 286.864C1078.26 286.864 1076.32 288.059 1074.91 290.448C1073.5 292.837 1072.8 296.165 1072.8 300.432ZM1146.83 300.56L1145.23 314H1113.87V313.488L1119.12 312.976V270.864L1113.87 270.352V269.84H1145.3L1146.19 281.872L1145.55 281.936L1141.97 272.976C1141.58 271.995 1141.16 271.355 1140.69 271.056C1140.26 270.757 1139.54 270.608 1138.51 270.608H1124.05V290.256H1133.52C1134.54 290.256 1135.27 290.085 1135.7 289.744C1136.12 289.403 1136.42 288.741 1136.59 287.76L1137.68 282.576H1138.45V298.96H1137.68L1136.59 293.776C1136.42 292.795 1136.12 292.133 1135.7 291.792C1135.27 291.451 1134.54 291.28 1133.52 291.28H1124.05V313.232H1138.38C1139.41 313.232 1140.16 313.083 1140.62 312.784C1141.09 312.443 1141.52 311.803 1141.9 310.864L1146.13 300.496L1146.83 300.56ZM1190.83 313.488V314H1178.8V313.488L1182.71 312.976V296.656C1182.71 294.992 1182.66 293.755 1182.58 292.944C1182.49 292.133 1182.34 291.451 1182.13 290.896C1181.49 289.36 1180.21 288.592 1178.29 288.592C1176.24 288.592 1174.51 289.531 1173.11 291.408C1173.19 292.859 1173.23 294.608 1173.23 296.656V312.976L1177.2 313.488V314H1165.11V313.488L1169.07 312.976V296.656C1169.07 294.992 1169.03 293.755 1168.95 292.944C1168.86 292.133 1168.71 291.451 1168.5 290.896C1167.86 289.36 1166.58 288.592 1164.66 288.592C1162.65 288.592 1160.97 289.467 1159.6 291.216V312.976L1163.51 313.488V314H1151.6V313.488L1155.44 312.976V290.576L1151.67 289.168V288.72L1158.9 286.224H1159.41V290.512C1161.93 287.653 1164.55 286.224 1167.28 286.224C1169.76 286.224 1171.51 287.269 1172.53 289.36C1172.7 289.701 1172.85 290.128 1172.98 290.64C1175.58 287.696 1178.23 286.224 1180.91 286.224C1183.39 286.224 1185.14 287.269 1186.16 289.36C1186.46 289.915 1186.65 290.704 1186.74 291.728C1186.82 292.709 1186.87 294.352 1186.87 296.656V312.976L1190.83 313.488ZM1215.94 306.704L1216.2 306.832L1215.94 307.536C1215.09 309.797 1213.81 311.547 1212.1 312.784C1210.44 314.021 1208.43 314.64 1206.09 314.64C1203.78 314.64 1201.74 314.043 1199.94 312.848C1198.15 311.653 1196.74 309.989 1195.72 307.856C1194.74 305.723 1194.25 303.269 1194.25 300.496C1194.25 297.723 1194.78 295.248 1195.85 293.072C1196.91 290.896 1198.43 289.211 1200.39 288.016C1202.35 286.821 1204.59 286.224 1207.11 286.224C1210.1 286.224 1212.38 287.12 1213.96 288.912C1215.58 290.661 1216.41 293.221 1216.46 296.592L1216.07 296.912H1198.79C1198.71 298.021 1198.66 298.896 1198.66 299.536C1198.66 303.419 1199.45 306.384 1201.03 308.432C1202.61 310.437 1204.81 311.44 1207.62 311.44C1209.07 311.44 1210.46 311.12 1211.78 310.48C1213.15 309.797 1214.34 308.795 1215.37 307.472L1215.94 306.704ZM1206.41 286.928C1204.4 286.928 1202.74 287.76 1201.42 289.424C1200.09 291.088 1199.24 293.349 1198.86 296.208L1211.27 295.76C1211.4 295.248 1211.46 294.395 1211.46 293.2C1211.46 290.896 1211.02 289.275 1210.12 288.336C1209.27 287.397 1208.03 286.928 1206.41 286.928ZM1234.94 286.224C1235.8 286.224 1236.52 286.523 1237.12 287.12C1237.72 287.675 1238.01 288.357 1238.01 289.168C1238.01 289.851 1237.78 290.427 1237.31 290.896C1236.84 291.365 1236.26 291.6 1235.58 291.6C1235.16 291.6 1234.79 291.515 1234.49 291.344C1234.24 291.131 1233.96 290.832 1233.66 290.448C1233.36 290.107 1233.09 289.851 1232.83 289.68C1232.62 289.509 1232.34 289.424 1232 289.424C1231.32 289.424 1230.61 289.829 1229.89 290.64C1229.2 291.451 1228.71 292.389 1228.41 293.456V312.976L1233.53 313.488V314H1220.35V313.488L1224.25 312.976V290.576L1220.48 289.168V288.72L1227.71 286.224H1228.22V291.856C1230.61 288.101 1232.85 286.224 1234.94 286.224ZM1251.42 286.224C1248.43 286.224 1246.11 286.885 1244.44 288.208C1242.82 289.531 1242.01 291.387 1242.01 293.776C1242.01 295.269 1242.31 296.507 1242.91 297.488C1243.5 298.469 1244.23 299.259 1245.08 299.856C1245.98 300.411 1247.15 301.051 1248.6 301.776C1250.56 302.715 1252.04 303.632 1253.02 304.528C1254 305.424 1254.49 306.747 1254.49 308.496C1254.49 310.117 1254.02 311.44 1253.08 312.464C1252.14 313.445 1250.88 313.936 1249.31 313.936C1247.56 313.936 1246.13 313.232 1245.02 311.824C1243.95 310.373 1243.2 308.155 1242.78 305.168H1242.01L1242.33 313.488C1243.23 313.829 1244.31 314.107 1245.59 314.32C1246.87 314.533 1248.03 314.64 1249.05 314.64C1251.87 314.64 1254.11 313.893 1255.77 312.4C1257.43 310.864 1258.27 308.795 1258.27 306.192C1258.27 304.613 1257.95 303.312 1257.31 302.288C1256.71 301.264 1255.96 300.475 1255.07 299.92C1254.21 299.323 1253.04 298.683 1251.55 298C1249.63 297.104 1248.2 296.251 1247.26 295.44C1246.32 294.587 1245.85 293.349 1245.85 291.728C1245.85 290.277 1246.28 289.125 1247.13 288.272C1247.98 287.376 1249.11 286.928 1250.52 286.928C1252.06 286.928 1253.27 287.504 1254.17 288.656C1255.11 289.808 1255.88 291.664 1256.47 294.224H1257.18V287.12C1256.49 286.864 1255.62 286.651 1254.55 286.48C1253.49 286.309 1252.44 286.224 1251.42 286.224ZM1276.17 286.224C1278.64 286.224 1280.84 286.821 1282.76 288.016C1284.68 289.211 1286.17 290.896 1287.24 293.072C1288.31 295.205 1288.84 297.659 1288.84 300.432C1288.84 303.205 1288.31 305.68 1287.24 307.856C1286.17 309.989 1284.68 311.653 1282.76 312.848C1280.84 314.043 1278.64 314.64 1276.17 314.64C1273.69 314.64 1271.5 314.043 1269.58 312.848C1267.66 311.653 1266.16 309.989 1265.1 307.856C1264.03 305.68 1263.5 303.205 1263.5 300.432C1263.5 297.659 1264.03 295.205 1265.1 293.072C1266.16 290.896 1267.66 289.211 1269.58 288.016C1271.5 286.821 1273.69 286.224 1276.17 286.224ZM1268.23 300.432C1268.23 304.699 1268.94 308.027 1270.35 310.416C1271.75 312.805 1273.69 314 1276.17 314C1278.64 314 1280.59 312.805 1281.99 310.416C1283.4 308.027 1284.11 304.699 1284.11 300.432C1284.11 296.165 1283.4 292.837 1281.99 290.448C1280.59 288.059 1278.64 286.864 1276.17 286.864C1273.69 286.864 1271.75 288.059 1270.35 290.448C1268.94 292.837 1268.23 296.165 1268.23 300.432ZM1319.92 313.488V314H1308.02V313.488L1311.92 312.976V296.656C1311.92 294.992 1311.88 293.755 1311.79 292.944C1311.71 292.133 1311.54 291.451 1311.28 290.896C1310.94 290.171 1310.36 289.616 1309.55 289.232C1308.78 288.805 1307.89 288.592 1306.86 288.592C1304.69 288.592 1302.75 289.509 1301.04 291.344V312.976L1304.94 313.488V314H1292.98V313.488L1296.88 312.976V290.896L1293.1 289.488V289.04L1300.34 286.544H1300.85V290.576C1303.58 287.675 1306.44 286.224 1309.42 286.224C1310.75 286.224 1311.94 286.523 1313.01 287.12C1314.12 287.675 1314.91 288.421 1315.38 289.36C1315.67 289.915 1315.87 290.683 1315.95 291.664C1316.04 292.603 1316.08 294.267 1316.08 296.656V312.976L1319.92 313.488Z" fill="white"/>
</svg>
