<svg width="27" height="32" viewBox="0 0 27 32" fill="none" xmlns="http://www.w3.org/2000/svg">
<path d="M5.088 6.08C5.088 4.448 4.864 3.248 4.416 2.48C3.968 1.68 3.072 1.28 1.728 1.28H0.768V0.319999H21.216C23.936 0.319999 25.296 1.6 25.296 4.16V7.76H24.336C24.336 4.08 22.336 2.24 18.336 2.24H9.408V14.72H22.368V16.64H9.408V30.08H17.808C20.016 30.08 21.744 29.68 22.992 28.88C24.24 28.08 25.232 26.72 25.968 24.8L26.928 25.04L25.248 29.6C24.672 31.2 23.472 32 21.648 32H5.088V6.08Z" fill="black"/>
</svg>
