<svg width="30" height="33" viewBox="0 0 30 33" fill="none" xmlns="http://www.w3.org/2000/svg">
<path d="M26.208 32.48C24.512 32.48 23.024 31.984 21.744 30.992C20.496 29.968 19.104 28.144 17.568 25.52L12.768 17.36H9.408V32H5.088V6.08C5.088 4.448 4.864 3.248 4.416 2.48C3.968 1.68 3.072 1.28 1.728 1.28H0.768V0.319999H13.248C16.288 0.319999 19.04 0.927999 21.504 2.144C24 3.328 25.248 5.6 25.248 8.96C25.248 13.216 22.688 15.936 17.568 17.12L22.608 25.52C23.792 27.504 24.848 28.896 25.776 29.696C26.736 30.464 27.84 30.912 29.088 31.04V32C28.8 32.128 28.384 32.24 27.84 32.336C27.328 32.432 26.784 32.48 26.208 32.48ZM13.008 15.68C14 15.68 15.072 15.44 16.224 14.96C17.408 14.48 18.4 13.728 19.2 12.704C20.032 11.68 20.448 10.432 20.448 8.96C20.448 7.392 20.032 6.096 19.2 5.072C18.4 4.016 17.408 3.248 16.224 2.768C15.072 2.256 14 2 13.008 2C11.888 2 10.688 2.16 9.408 2.48V15.2C10.688 15.52 11.888 15.68 13.008 15.68Z" fill="black"/>
</svg>
