<svg width="30" height="33" viewBox="0 0 30 33" fill="none" xmlns="http://www.w3.org/2000/svg">
<path d="M16.992 32.48C13.92 32.48 11.488 31.968 9.696 30.944C7.904 29.888 6.624 28.336 5.856 26.288C5.12 24.24 4.752 21.584 4.752 18.32V6.08C4.752 4.448 4.528 3.248 4.08 2.48C3.632 1.68 2.736 1.28 1.392 1.28H0.432V0.319999H4.752C5.936 0.319999 6.816 0.479999 7.392 0.799998C8 1.088 8.432 1.632 8.688 2.432C8.944 3.232 9.072 4.448 9.072 6.08V19.76C9.072 23.312 9.728 26 11.04 27.824C12.352 29.648 14.528 30.56 17.568 30.56C20 30.56 21.92 30.128 23.328 29.264C24.768 28.4 25.792 27.088 26.4 25.328C27.008 23.568 27.312 21.232 27.312 18.32V0.319999H29.232V18.32C29.232 21.648 28.88 24.336 28.176 26.384C27.472 28.4 26.224 29.92 24.432 30.944C22.672 31.968 20.192 32.48 16.992 32.48Z" fill="black"/>
</svg>
