<svg width="34" height="32" viewBox="0 0 34 32" fill="none" xmlns="http://www.w3.org/2000/svg">
<path d="M14.968 16.4L8.248 6.56C7.48 5.44 6.808 4.56 6.232 3.92C5.656 3.248 4.904 2.656 3.976 2.144C3.048 1.632 1.912 1.344 0.568 1.28V0.319999H6.328C7.736 0.319999 8.92 0.783998 9.88 1.712C10.84 2.608 11.896 3.904 13.048 5.6L17.848 12.8L27.448 0.319999H29.848L19.048 14.48L26.728 25.76C27.72 27.232 28.776 28.464 29.896 29.456C31.048 30.416 32.312 30.944 33.688 31.04V32H28.648C27.272 32 26.056 31.52 25 30.56C23.944 29.568 22.92 28.288 21.928 26.72L16.168 18.08L5.368 32H2.968L14.968 16.4Z" fill="black"/>
</svg>
